<?xml version="1.0" encoding="UTF-8" standalone="no"?><!-- Generator: Gravit.io --><svg xmlns="http://www.w3.org/2000/svg" xmlns:xlink="http://www.w3.org/1999/xlink" style="isolation:isolate" viewBox="0 0 283.4 210" width="283.4pt" height="210pt"><defs><clipPath id="_clipPath_SVbgaTWV43gVA9HjrhEP4lpBNG1Wb9KG"><rect width="283.4" height="210"/></clipPath></defs><g clip-path="url(#_clipPath_SVbgaTWV43gVA9HjrhEP4lpBNG1Wb9KG)"><path d=" M 104.12 120.54 L 104.12 120.54 L 104.12 120.54 Q 103.76 123 102.53 125.1 L 102.53 125.1 L 102.53 125.1 Q 101.3 127.2 99.53 129 L 99.53 129 L 99.53 129 Q 97.76 130.8 95.69 132.3 L 95.69 132.3 L 95.69 132.3 Q 93.62 133.8 91.64 135.06 L 91.64 135.06 L 91.64 135.06 Q 85.28 139.02 77.96 141.6 L 77.96 141.6 L 77.96 141.6 Q 75.86 142.38 73.61 143.04 L 73.61 143.04 L 73.61 143.04 Q 71.36 143.7 69.08 144.18 L 69.08 144.18 L 69.08 144.18 Q 68.84 144.42 68.3 145.08 L 68.3 145.08 L 68.3 145.08 Q 67.76 145.74 67.1 146.49 L 67.1 146.49 L 67.1 146.49 Q 66.44 147.24 65.84 147.96 L 65.84 147.96 L 65.84 147.96 Q 65.24 148.68 64.94 149.04 L 64.94 149.04 L 64.94 149.04 Q 59.66 155.04 54.5 160.92 L 54.5 160.92 L 54.5 160.92 Q 49.34 166.8 44 172.74 L 44 172.74 L 44 172.74 Q 42.74 174.12 41.48 175.47 L 41.48 175.47 L 41.48 175.47 Q 40.22 176.82 38.9 178.2 L 38.9 178.2 L 38.9 178.2 Q 38.36 178.8 37.79 179.4 L 37.79 179.4 L 37.79 179.4 Q 37.22 180 36.56 180.54 L 36.56 180.54 L 36.56 180.54 Q 36.56 180.54 36.38 180.69 L 36.38 180.69 L 36.38 180.69 Q 36.2 180.84 36.02 180.99 L 36.02 180.99 L 36.02 180.99 Q 35.84 181.14 35.69 181.2 L 35.69 181.2 L 35.69 181.2 Q 35.54 181.26 35.54 181.14 L 35.54 181.14 L 35.54 181.14 Q 35.66 180.78 35.87 180.33 L 35.87 180.33 L 35.87 180.33 Q 36.08 179.88 36.38 179.46 L 36.38 179.46 L 36.38 179.46 Q 37.82 177.12 39.47 174.93 L 39.47 174.93 L 39.47 174.93 Q 41.12 172.74 42.74 170.52 L 42.74 170.52 L 42.74 170.52 Q 47.42 164.16 52.28 157.98 L 52.28 157.98 L 52.28 157.98 Q 57.14 151.8 62.24 145.62 L 62.24 145.62 L 62.24 145.62 Q 61.16 145.8 60.08 145.98 L 60.08 145.98 L 60.08 145.98 Q 59 146.16 57.92 146.28 L 57.92 146.28 L 57.92 146.28 Q 54.92 146.76 51.95 146.97 L 51.95 146.97 L 51.95 146.97 Q 48.98 147.18 45.92 147.06 L 45.92 147.06 L 45.92 147.06 Q 45.62 147 45.35 146.97 L 45.35 146.97 L 45.35 146.97 Q 45.08 146.94 44.9 146.82 L 44.9 146.82 L 44.9 146.82 Q 44.78 146.76 45.02 146.61 L 45.02 146.61 L 45.02 146.61 Q 45.26 146.46 45.59 146.34 L 45.59 146.34 L 45.59 146.34 Q 45.92 146.22 46.25 146.13 L 46.25 146.13 L 46.25 146.13 Q 46.58 146.04 46.64 146.04 L 46.64 146.04 L 46.64 146.04 Q 47.54 145.86 49.25 145.44 L 49.25 145.44 L 49.25 145.44 Q 50.96 145.02 53.06 144.57 L 53.06 144.57 L 53.06 144.57 Q 55.16 144.12 57.35 143.61 L 57.35 143.61 L 57.35 143.61 Q 59.54 143.1 61.37 142.65 L 61.37 142.65 L 61.37 142.65 Q 63.2 142.2 64.43 141.84 L 64.43 141.84 L 64.43 141.84 Q 65.66 141.48 65.78 141.36 L 65.78 141.36 L 65.78 141.36 Q 66.5 140.58 67.01 139.98 L 67.01 139.98 L 67.01 139.98 Q 67.52 139.38 67.94 138.87 L 67.94 138.87 L 67.94 138.87 Q 68.36 138.36 68.78 137.88 L 68.78 137.88 L 68.78 137.88 Q 69.2 137.4 69.74 136.8 L 69.74 136.8 L 69.74 136.8 Q 72.26 133.86 74.84 131.01 L 74.84 131.01 L 74.84 131.01 Q 77.42 128.16 80.24 125.46 L 80.24 125.46 L 80.24 125.46 Q 81.14 124.56 82.25 123.66 L 82.25 123.66 L 82.25 123.66 Q 83.36 122.76 84.26 122.1 L 84.26 122.1 L 84.26 122.1 Q 84.44 121.98 84.83 121.74 L 84.83 121.74 L 84.83 121.74 Q 85.22 121.5 85.34 121.74 L 85.34 121.74 L 85.34 121.74 Q 85.52 122.1 85.16 122.94 L 85.16 122.94 L 85.16 122.94 Q 84.8 123.78 84.29 124.68 L 84.29 124.68 L 84.29 124.68 Q 83.78 125.58 83.24 126.36 L 83.24 126.36 L 83.24 126.36 Q 82.7 127.14 82.52 127.38 L 82.52 127.38 L 82.52 127.38 Q 80.3 130.56 77.9 133.53 L 77.9 133.53 L 77.9 133.53 Q 75.5 136.5 73.04 139.5 L 73.04 139.5 L 73.04 139.5 Q 78.38 137.82 83.75 135.78 L 83.75 135.78 L 83.75 135.78 Q 89.12 133.74 93.8 130.56 L 93.8 130.56 L 93.8 130.56 Q 95.3 129.54 96.65 128.43 L 96.65 128.43 L 96.65 128.43 Q 98 127.32 99.2 126 L 99.2 126 L 99.2 126 Q 99.86 125.28 100.46 124.38 L 100.46 124.38 L 100.46 124.38 Q 101.06 123.48 101.33 122.49 L 101.33 122.49 L 101.33 122.49 Q 101.6 121.5 101.48 120.54 L 101.48 120.54 L 101.48 120.54 Q 101.36 119.58 100.64 118.68 L 100.64 118.68 L 100.64 118.68 Q 99.44 117.24 97.64 116.49 L 97.64 116.49 L 97.64 116.49 Q 95.84 115.74 94.1 115.32 L 94.1 115.32 L 94.1 115.32 Q 90.32 114.42 86.27 114.39 L 86.27 114.39 L 86.27 114.39 Q 82.22 114.36 78.38 114.66 L 78.38 114.66 L 78.38 114.66 Q 70.28 115.2 62.36 117 L 62.36 117 L 62.36 117 Q 54.8 118.74 47.63 121.41 L 47.63 121.41 L 47.63 121.41 Q 40.46 124.08 33.56 127.62 L 33.56 127.62 L 33.56 127.62 Q 32.78 128.04 32.03 128.43 L 32.03 128.43 L 32.03 128.43 Q 31.28 128.82 30.5 129.18 L 30.5 129.18 L 30.5 129.18 Q 30.44 129.24 30.11 129.36 L 30.11 129.36 L 30.11 129.36 Q 29.78 129.48 29.84 129.42 L 29.84 129.42 L 29.84 129.42 Q 29.96 129.12 30.29 128.88 L 30.29 128.88 L 30.29 128.88 Q 30.62 128.64 30.8 128.52 L 30.8 128.52 L 30.8 128.52 Q 32.18 127.5 33.53 126.57 L 33.53 126.57 L 33.53 126.57 Q 34.88 125.64 36.26 124.8 L 36.26 124.8 L 36.26 124.8 Q 39.8 122.58 44.3 120.36 L 44.3 120.36 L 44.3 120.36 Q 48.8 118.14 53.9 116.22 L 53.9 116.22 L 53.9 116.22 Q 59 114.3 64.46 112.86 L 64.46 112.86 L 64.46 112.86 Q 69.92 111.42 75.35 110.73 L 75.35 110.73 L 75.35 110.73 Q 80.78 110.04 86.03 110.31 L 86.03 110.31 L 86.03 110.31 Q 91.28 110.58 95.9 112.08 L 95.9 112.08 L 95.9 112.08 Q 97.34 112.56 98.78 113.28 L 98.78 113.28 L 98.78 113.28 Q 100.22 114 101.42 115.05 L 101.42 115.05 L 101.42 115.05 Q 102.62 116.1 103.37 117.48 L 103.37 117.48 L 103.37 117.48 Q 104.12 118.86 104.12 120.54 Z  M 101.48 153 L 101.48 153 L 101.48 153 Q 101.6 153.12 101.12 153.66 L 101.12 153.66 L 101.12 153.66 Q 100.64 154.2 100.01 154.86 L 100.01 154.86 L 100.01 154.86 Q 99.38 155.52 98.78 156.09 L 98.78 156.09 L 98.78 156.09 Q 98.18 156.66 98.06 156.78 L 98.06 156.78 L 98.06 156.78 Q 95.66 158.88 93.14 160.89 L 93.14 160.89 L 93.14 160.89 Q 90.62 162.9 87.62 164.58 L 87.62 164.58 L 87.62 164.58 Q 86.18 165.42 84.62 166.11 L 84.62 166.11 L 84.62 166.11 Q 83.06 166.8 81.38 166.86 L 81.38 166.86 L 81.38 166.86 Q 79.94 166.86 78.83 165.93 L 78.83 165.93 L 78.83 165.93 Q 77.72 165 77.9 163.44 L 77.9 163.44 L 77.9 163.44 Q 78.26 160.02 80.12 157.26 L 80.12 157.26 L 80.12 157.26 Q 81.98 154.5 84.26 152.04 L 84.26 152.04 L 84.26 152.04 Q 85.4 150.84 86.66 149.79 L 86.66 149.79 L 86.66 149.79 Q 87.92 148.74 89.3 147.78 L 89.3 147.78 L 89.3 147.78 Q 90.62 146.82 92.06 146.07 L 92.06 146.07 L 92.06 146.07 Q 93.5 145.32 95.06 144.84 L 95.06 144.84 L 95.06 144.84 Q 95.78 144.6 96.62 144.57 L 96.62 144.57 L 96.62 144.57 Q 97.46 144.54 98.18 144.9 L 98.18 144.9 L 98.18 144.9 Q 99.62 145.74 99.5 147.21 L 99.5 147.21 L 99.5 147.21 Q 99.38 148.68 98.36 150.24 L 98.36 150.24 L 98.36 150.24 Q 97.88 150.9 97.4 151.5 L 97.4 151.5 L 97.4 151.5 Q 96.92 152.1 96.38 152.7 L 96.38 152.7 L 96.38 152.7 Q 94.22 155.04 91.52 156.66 L 91.52 156.66 L 91.52 156.66 Q 89.6 157.74 87.68 158.55 L 87.68 158.55 L 87.68 158.55 Q 85.76 159.36 83.3 160.02 L 83.3 160.02 L 83.3 160.02 Q 81.98 161.76 81.38 163.86 L 81.38 163.86 L 81.38 163.86 Q 83.12 163.86 85.22 163.05 L 85.22 163.05 L 85.22 163.05 Q 87.32 162.24 89.42 161.01 L 89.42 161.01 L 89.42 161.01 Q 91.52 159.78 93.56 158.43 L 93.56 158.43 L 93.56 158.43 Q 95.6 157.08 97.28 156 L 97.28 156 L 97.28 156 Q 97.4 155.94 98.06 155.46 L 98.06 155.46 L 98.06 155.46 Q 98.72 154.98 99.47 154.41 L 99.47 154.41 L 99.47 154.41 Q 100.22 153.84 100.85 153.42 L 100.85 153.42 L 100.85 153.42 Q 101.48 153 101.48 153 Z  M 86.12 156.24 L 86.12 156.24 L 86.12 156.24 Q 85.52 156.9 85.19 157.38 L 85.19 157.38 L 85.19 157.38 Q 84.86 157.86 84.44 158.46 L 84.44 158.46 L 84.44 158.46 Q 86.48 157.92 88.43 156.87 L 88.43 156.87 L 88.43 156.87 Q 90.38 155.82 92.03 154.38 L 92.03 154.38 L 92.03 154.38 Q 93.68 152.94 94.97 151.14 L 94.97 151.14 L 94.97 151.14 Q 96.26 149.34 96.98 147.24 L 96.98 147.24 L 96.98 147.24 Q 93.8 148.74 91.22 151.14 L 91.22 151.14 L 91.22 151.14 Q 88.64 153.54 86.12 156.24 Z  M 115.52 153.96 L 115.52 153.96 L 115.52 153.96 Q 115.58 154.08 115.04 154.56 L 115.04 154.56 L 115.04 154.56 Q 114.5 155.04 113.78 155.67 L 113.78 155.67 L 113.78 155.67 Q 113.06 156.3 112.34 156.87 L 112.34 156.87 L 112.34 156.87 Q 111.62 157.44 111.38 157.68 L 111.38 157.68 L 111.38 157.68 Q 110.42 158.4 109.49 159.15 L 109.49 159.15 L 109.49 159.15 Q 108.56 159.9 107.6 160.62 L 107.6 160.62 L 107.6 160.62 Q 106.16 161.82 104.84 163.02 L 104.84 163.02 L 104.84 163.02 Q 103.52 164.22 102.2 165.54 L 102.2 165.54 L 102.2 165.54 Q 101.78 165.96 101.39 166.35 L 101.39 166.35 L 101.39 166.35 Q 101 166.74 100.52 167.04 L 100.52 167.04 L 100.52 167.04 Q 99.68 167.52 98.78 167.13 L 98.78 167.13 L 98.78 167.13 Q 97.88 166.74 97.82 165.72 L 97.82 165.72 L 97.82 165.72 Q 97.7 164.76 98.21 163.8 L 98.21 163.8 L 98.21 163.8 Q 98.72 162.84 99.2 162.12 L 99.2 162.12 L 99.2 162.12 Q 100.58 159.84 102.08 157.71 L 102.08 157.71 L 102.08 157.71 Q 103.58 155.58 104.9 153.3 L 104.9 153.3 L 104.9 153.3 Q 105.14 152.94 104.99 152.4 L 104.99 152.4 L 104.99 152.4 Q 104.84 151.86 104.72 151.38 L 104.72 151.38 L 104.72 151.38 Q 102.74 153.18 100.22 155.07 L 100.22 155.07 L 100.22 155.07 Q 97.7 156.96 95.48 158.46 L 95.48 158.46 L 95.48 158.46 Q 93.26 159.96 91.67 160.8 L 91.67 160.8 L 91.67 160.8 Q 90.08 161.64 89.96 161.46 L 89.96 161.46 L 89.96 161.46 Q 89.9 161.34 90.89 160.56 L 90.89 160.56 L 90.89 160.56 Q 91.88 159.78 93.38 158.58 L 93.38 158.58 L 93.38 158.58 Q 94.88 157.38 96.68 155.94 L 96.68 155.94 L 96.68 155.94 Q 98.48 154.5 100.07 153.06 L 100.07 153.06 L 100.07 153.06 Q 101.66 151.62 102.8 150.36 L 102.8 150.36 L 102.8 150.36 Q 103.94 149.1 104.12 148.26 L 104.12 148.26 L 104.12 148.26 Q 104.06 147.24 104.15 145.98 L 104.15 145.98 L 104.15 145.98 Q 104.24 144.72 105.08 143.76 L 105.08 143.76 L 105.08 143.76 Q 105.8 142.98 106.82 142.98 L 106.82 142.98 L 106.82 142.98 Q 107.84 142.98 108.32 144.06 L 108.32 144.06 L 108.32 144.06 Q 108.8 145.14 108.38 146.13 L 108.38 146.13 L 108.38 146.13 Q 107.96 147.12 107.48 148.02 L 107.48 148.02 L 107.48 148.02 Q 107.36 148.32 107.24 148.56 L 107.24 148.56 L 107.24 148.56 Q 107.12 148.8 107.12 149.16 L 107.12 149.16 L 107.12 149.16 Q 107.24 150 107.57 150.75 L 107.57 150.75 L 107.57 150.75 Q 107.9 151.5 108.32 152.34 L 108.32 152.34 L 108.32 152.34 Q 108.8 153.54 108.59 154.59 L 108.59 154.59 L 108.59 154.59 Q 108.38 155.64 107.6 156.66 L 107.6 156.66 L 107.6 156.66 Q 106.88 157.68 106.1 158.73 L 106.1 158.73 L 106.1 158.73 Q 105.32 159.78 104.6 160.8 L 104.6 160.8 L 104.6 160.8 Q 105.98 159.9 107.3 158.94 L 107.3 158.94 L 107.3 158.94 Q 108.62 157.98 110 157.08 L 110 157.08 L 110 157.08 Q 110.18 156.96 111.02 156.39 L 111.02 156.39 L 111.02 156.39 Q 111.86 155.82 112.85 155.25 L 112.85 155.25 L 112.85 155.25 Q 113.84 154.68 114.62 154.23 L 114.62 154.23 L 114.62 154.23 Q 115.4 153.78 115.52 153.96 Z  M 130.76 154.08 L 130.76 154.08 L 130.76 154.08 Q 131.24 153.66 131.78 153.3 L 131.78 153.3 L 131.78 153.3 Q 132.32 152.94 132.38 153.12 L 132.38 153.12 L 132.38 153.12 Q 132.38 153.24 131.78 153.9 L 131.78 153.9 L 131.78 153.9 Q 131.18 154.56 130.52 155.22 L 130.52 155.22 L 130.52 155.22 Q 127.52 158.22 124.43 160.68 L 124.43 160.68 L 124.43 160.68 Q 121.34 163.14 117.38 165.24 L 117.38 165.24 L 117.38 165.24 Q 116.54 165.6 115.55 166.02 L 115.55 166.02 L 115.55 166.02 Q 114.56 166.44 113.51 166.62 L 113.51 166.62 L 113.51 166.62 Q 112.46 166.8 111.44 166.59 L 111.44 166.59 L 111.44 166.59 Q 110.42 166.38 109.64 165.54 L 109.64 165.54 L 109.64 165.54 Q 108.68 164.46 108.89 162.84 L 108.89 162.84 L 108.89 162.84 Q 109.1 161.22 109.88 159.57 L 109.88 159.57 L 109.88 159.57 Q 110.66 157.92 111.68 156.42 L 111.68 156.42 L 111.68 156.42 Q 112.7 154.92 113.42 154.14 L 113.42 154.14 L 113.42 154.14 Q 114.5 152.82 116.24 151.2 L 116.24 151.2 L 116.24 151.2 Q 117.98 149.58 120.02 148.17 L 120.02 148.17 L 120.02 148.17 Q 122.06 146.76 124.1 145.8 L 124.1 145.8 L 124.1 145.8 Q 126.14 144.84 127.88 144.84 L 127.88 144.84 L 127.88 144.84 Q 128.78 144.84 129.5 145.35 L 129.5 145.35 L 129.5 145.35 Q 130.22 145.86 130.34 146.76 L 130.34 146.76 L 130.34 146.76 Q 130.46 147.6 130.13 148.41 L 130.13 148.41 L 130.13 148.41 Q 129.8 149.22 129.23 150.03 L 129.23 150.03 L 129.23 150.03 Q 128.66 150.84 127.97 151.53 L 127.97 151.53 L 127.97 151.53 Q 127.28 152.22 126.62 152.76 L 126.62 152.76 L 126.62 152.76 Q 125.18 153.96 124.01 154.65 L 124.01 154.65 L 124.01 154.65 Q 122.84 155.34 122.36 155.58 L 122.36 155.58 L 122.36 155.58 Q 122.06 155.76 121.82 155.82 L 121.82 155.82 L 121.82 155.82 Q 121.64 155.94 121.49 155.94 L 121.49 155.94 L 121.49 155.94 Q 121.34 155.94 121.4 155.82 L 121.4 155.82 L 121.4 155.82 Q 121.52 155.52 121.82 155.34 L 121.82 155.34 L 121.82 155.34 Q 122.12 155.16 122.36 154.98 L 122.36 154.98 L 122.36 154.98 Q 123.2 154.38 124.1 153.54 L 124.1 153.54 L 124.1 153.54 Q 125 152.7 125.81 151.74 L 125.81 151.74 L 125.81 151.74 Q 126.62 150.78 127.19 149.7 L 127.19 149.7 L 127.19 149.7 Q 127.76 148.62 127.94 147.48 L 127.94 147.48 L 127.94 147.48 Q 126.74 147.78 125.69 148.53 L 125.69 148.53 L 125.69 148.53 Q 124.64 149.28 123.62 150.12 L 123.62 150.12 L 123.62 150.12 Q 122.24 151.32 120.5 152.88 L 120.5 152.88 L 120.5 152.88 Q 118.76 154.44 117.14 156.24 L 117.14 156.24 L 117.14 156.24 Q 115.52 158.04 114.23 159.96 L 114.23 159.96 L 114.23 159.96 Q 112.94 161.88 112.52 163.8 L 112.52 163.8 L 112.52 163.8 Q 114.5 163.62 116.42 162.87 L 116.42 162.87 L 116.42 162.87 Q 118.34 162.12 120.14 161.13 L 120.14 161.13 L 120.14 161.13 Q 121.94 160.14 123.68 158.97 L 123.68 158.97 L 123.68 158.97 Q 125.42 157.8 127.1 156.72 L 127.1 156.72 L 127.1 156.72 Q 128.18 155.88 129.02 155.34 L 129.02 155.34 L 129.02 155.34 Q 129.86 154.8 130.76 154.08 Z  M 149.06 153 L 149.06 153 L 149.06 153 Q 149.18 153.12 148.7 153.66 L 148.7 153.66 L 148.7 153.66 Q 148.22 154.2 147.59 154.86 L 147.59 154.86 L 147.59 154.86 Q 146.96 155.52 146.36 156.09 L 146.36 156.09 L 146.36 156.09 Q 145.76 156.66 145.64 156.78 L 145.64 156.78 L 145.64 156.78 Q 143.24 158.88 140.72 160.89 L 140.72 160.89 L 140.72 160.89 Q 138.2 162.9 135.2 164.58 L 135.2 164.58 L 135.2 164.58 Q 133.76 165.42 132.2 166.11 L 132.2 166.11 L 132.2 166.11 Q 130.64 166.8 128.96 166.86 L 128.96 166.86 L 128.96 166.86 Q 127.52 166.86 126.41 165.93 L 126.41 165.93 L 126.41 165.93 Q 125.3 165 125.48 163.44 L 125.48 163.44 L 125.48 163.44 Q 125.84 160.02 127.7 157.26 L 127.7 157.26 L 127.7 157.26 Q 129.56 154.5 131.84 152.04 L 131.84 152.04 L 131.84 152.04 Q 132.98 150.84 134.24 149.79 L 134.24 149.79 L 134.24 149.79 Q 135.5 148.74 136.88 147.78 L 136.88 147.78 L 136.88 147.78 Q 138.2 146.82 139.64 146.07 L 139.64 146.07 L 139.64 146.07 Q 141.08 145.32 142.64 144.84 L 142.64 144.84 L 142.64 144.84 Q 143.36 144.6 144.2 144.57 L 144.2 144.57 L 144.2 144.57 Q 145.04 144.54 145.76 144.9 L 145.76 144.9 L 145.76 144.9 Q 147.2 145.74 147.08 147.21 L 147.08 147.21 L 147.08 147.21 Q 146.96 148.68 145.94 150.24 L 145.94 150.24 L 145.94 150.24 Q 145.46 150.9 144.98 151.5 L 144.98 151.5 L 144.98 151.5 Q 144.5 152.1 143.96 152.7 L 143.96 152.7 L 143.96 152.7 Q 141.8 155.04 139.1 156.66 L 139.1 156.66 L 139.1 156.66 Q 137.18 157.74 135.26 158.55 L 135.26 158.55 L 135.26 158.55 Q 133.34 159.36 130.88 160.02 L 130.88 160.02 L 130.88 160.02 Q 129.56 161.76 128.96 163.86 L 128.96 163.86 L 128.96 163.86 Q 130.7 163.86 132.8 163.05 L 132.8 163.05 L 132.8 163.05 Q 134.9 162.24 137 161.01 L 137 161.01 L 137 161.01 Q 139.1 159.78 141.14 158.43 L 141.14 158.43 L 141.14 158.43 Q 143.18 157.08 144.86 156 L 144.86 156 L 144.86 156 Q 144.98 155.94 145.64 155.46 L 145.64 155.46 L 145.64 155.46 Q 146.3 154.98 147.05 154.41 L 147.05 154.41 L 147.05 154.41 Q 147.8 153.84 148.43 153.42 L 148.43 153.42 L 148.43 153.42 Q 149.06 153 149.06 153 Z  M 133.7 156.24 L 133.7 156.24 L 133.7 156.24 Q 133.1 156.9 132.77 157.38 L 132.77 157.38 L 132.77 157.38 Q 132.44 157.86 132.02 158.46 L 132.02 158.46 L 132.02 158.46 Q 134.06 157.92 136.01 156.87 L 136.01 156.87 L 136.01 156.87 Q 137.96 155.82 139.61 154.38 L 139.61 154.38 L 139.61 154.38 Q 141.26 152.94 142.55 151.14 L 142.55 151.14 L 142.55 151.14 Q 143.84 149.34 144.56 147.24 L 144.56 147.24 L 144.56 147.24 Q 141.38 148.74 138.8 151.14 L 138.8 151.14 L 138.8 151.14 Q 136.22 153.54 133.7 156.24 Z  M 169.76 154.14 L 169.76 154.14 L 169.76 154.14 Q 169.82 154.2 169.58 154.44 L 169.58 154.44 L 169.58 154.44 Q 168.14 156 166.34 157.44 L 166.34 157.44 L 166.34 157.44 Q 164.54 158.88 162.68 160.14 L 162.68 160.14 L 162.68 160.14 Q 159.8 162.12 156.95 163.71 L 156.95 163.71 L 156.95 163.71 Q 154.1 165.3 151.7 165.9 L 151.7 165.9 L 151.7 165.9 Q 151.22 166.02 150.62 166.17 L 150.62 166.17 L 150.62 166.17 Q 150.02 166.32 149.45 166.41 L 149.45 166.41 L 149.45 166.41 Q 148.88 166.5 148.43 166.56 L 148.43 166.56 L 148.43 166.56 Q 147.98 166.62 147.8 166.56 L 147.8 166.56 L 147.8 166.56 Q 147.32 166.44 147.2 166.02 L 147.2 166.02 L 147.2 166.02 Q 147.08 165.6 147.38 165.24 L 147.38 165.24 L 147.38 165.24 Q 147.5 165.06 148.19 164.7 L 148.19 164.7 L 148.19 164.7 Q 148.88 164.34 149.12 164.22 L 149.12 164.22 L 149.12 164.22 Q 149.18 164.16 149.51 164.01 L 149.51 164.01 L 149.51 164.01 Q 149.84 163.86 150.23 163.65 L 150.23 163.65 L 150.23 163.65 Q 150.62 163.44 151.01 163.23 L 151.01 163.23 L 151.01 163.23 Q 151.4 163.02 151.64 162.84 L 151.64 162.84 L 151.64 162.84 Q 152.78 162.06 153.98 161.01 L 153.98 161.01 L 153.98 161.01 Q 155.18 159.96 156.29 158.85 L 156.29 158.85 L 156.29 158.85 Q 157.4 157.74 158.45 156.63 L 158.45 156.63 L 158.45 156.63 Q 159.5 155.52 160.34 154.56 L 160.34 154.56 L 160.34 154.56 Q 161.72 152.76 163.04 150.63 L 163.04 150.63 L 163.04 150.63 Q 164.36 148.5 165.2 146.58 L 165.2 146.58 L 165.2 146.58 Q 163.64 146.82 161.72 147.99 L 161.72 147.99 L 161.72 147.99 Q 159.8 149.16 157.7 150.93 L 157.7 150.93 L 157.7 150.93 Q 155.6 152.7 153.44 154.89 L 153.44 154.89 L 153.44 154.89 Q 151.28 157.08 149.33 159.3 L 149.33 159.3 L 149.33 159.3 Q 147.38 161.52 145.7 163.65 L 145.7 163.65 L 145.7 163.65 Q 144.02 165.78 142.88 167.46 L 142.88 167.46 L 142.88 167.46 Q 140.42 171.06 138.02 174.57 L 138.02 174.57 L 138.02 174.57 Q 135.62 178.08 133.1 181.68 L 133.1 181.68 L 133.1 181.68 Q 130.58 185.34 127.97 189.03 L 127.97 189.03 L 127.97 189.03 Q 125.36 192.72 122.54 196.2 L 122.54 196.2 L 122.54 196.2 Q 121.94 196.92 121.34 197.64 L 121.34 197.64 L 121.34 197.64 Q 120.74 198.36 120.02 198.96 L 120.02 198.96 L 120.02 198.96 Q 119.84 199.08 119.48 199.29 L 119.48 199.29 L 119.48 199.29 Q 119.12 199.5 119 199.02 L 119 199.02 L 119 199.02 Q 118.94 198.72 119.06 198.36 L 119.06 198.36 L 119.06 198.36 Q 119.18 198 119.3 197.7 L 119.3 197.7 L 119.3 197.7 Q 119.54 197.1 119.78 196.53 L 119.78 196.53 L 119.78 196.53 Q 120.02 195.96 120.32 195.42 L 120.32 195.42 L 120.32 195.42 Q 122.12 191.82 124.25 188.49 L 124.25 188.49 L 124.25 188.49 Q 126.38 185.16 128.48 181.8 L 128.48 181.8 L 128.48 181.8 Q 130.1 179.28 131.72 176.82 L 131.72 176.82 L 131.72 176.82 Q 133.34 174.36 135.08 171.84 L 135.08 171.84 L 135.08 171.84 Q 135.98 170.58 137.18 168.84 L 137.18 168.84 L 137.18 168.84 Q 138.38 167.1 139.7 165.27 L 139.7 165.27 L 139.7 165.27 Q 141.02 163.44 142.31 161.67 L 142.31 161.67 L 142.31 161.67 Q 143.6 159.9 144.62 158.49 L 144.62 158.49 L 144.62 158.49 Q 145.64 157.08 146.27 156.21 L 146.27 156.21 L 146.27 156.21 Q 146.9 155.34 146.9 155.34 L 146.9 155.34 L 146.9 155.34 Q 148.28 153.6 149.42 152.16 L 149.42 152.16 L 149.42 152.16 Q 150.44 150.96 151.31 149.85 L 151.31 149.85 L 151.31 149.85 Q 152.18 148.74 152.48 148.44 L 152.48 148.44 L 152.48 148.44 Q 152.54 148.38 152.99 147.93 L 152.99 147.93 L 152.99 147.93 Q 153.44 147.48 154.01 146.91 L 154.01 146.91 L 154.01 146.91 Q 154.58 146.34 155.24 145.8 L 155.24 145.8 L 155.24 145.8 Q 155.9 145.26 156.38 145.02 L 156.38 145.02 L 156.38 145.02 Q 156.8 144.78 157.04 144.9 L 157.04 144.9 L 157.04 144.9 Q 157.34 145.02 157.22 145.44 L 157.22 145.44 L 157.22 145.44 Q 156.98 146.46 156.68 147.24 L 156.68 147.24 L 156.68 147.24 Q 156.38 148.02 155.99 148.74 L 155.99 148.74 L 155.99 148.74 Q 155.6 149.46 155.15 150.18 L 155.15 150.18 L 155.15 150.18 Q 154.7 150.9 154.1 151.86 L 154.1 151.86 L 154.1 151.86 Q 154.4 151.56 154.67 151.35 L 154.67 151.35 L 154.67 151.35 Q 154.94 151.14 155.18 150.9 L 155.18 150.9 L 155.18 150.9 Q 157.58 148.68 159.77 147.3 L 159.77 147.3 L 159.77 147.3 Q 161.96 145.92 163.73 145.2 L 163.73 145.2 L 163.73 145.2 Q 165.5 144.48 166.79 144.33 L 166.79 144.33 L 166.79 144.33 Q 168.08 144.18 168.62 144.42 L 168.62 144.42 L 168.62 144.42 Q 169.52 144.84 169.49 145.89 L 169.49 145.89 L 169.49 145.89 Q 169.46 146.94 168.86 148.29 L 168.86 148.29 L 168.86 148.29 Q 168.26 149.64 167.33 151.17 L 167.33 151.17 L 167.33 151.17 Q 166.4 152.7 165.44 154.05 L 165.44 154.05 L 165.44 154.05 Q 164.48 155.4 163.7 156.39 L 163.7 156.39 L 163.7 156.39 Q 162.92 157.38 162.68 157.68 L 162.68 157.68 L 161.42 159.18 L 161.42 159.18 Q 163.16 157.98 164.9 156.81 L 164.9 156.81 L 164.9 156.81 Q 166.64 155.64 168.56 154.62 L 168.56 154.62 L 168.56 154.62 Q 168.68 154.5 169.19 154.26 L 169.19 154.26 L 169.19 154.26 Q 169.7 154.02 169.76 154.14 Z  M 227.18 124.74 L 227.18 124.74 L 227.18 124.74 Q 229.52 124.56 229.52 124.74 L 229.52 124.74 L 229.52 124.74 Q 229.58 124.8 227.24 125.28 L 227.24 125.28 L 227.24 125.28 Q 226.16 125.52 224.57 125.79 L 224.57 125.79 L 224.57 125.79 Q 222.98 126.06 221 126.42 L 221 126.42 L 221 126.42 Q 215.72 127.26 210.77 128.07 L 210.77 128.07 L 210.77 128.07 Q 205.82 128.88 200.24 129.72 L 200.24 129.72 L 200.24 129.72 Q 197.48 130.14 194.87 130.5 L 194.87 130.5 L 194.87 130.5 Q 192.26 130.86 189.8 131.16 L 189.8 131.16 L 189.8 131.16 Q 188 133.86 186.59 135.9 L 186.59 135.9 L 186.59 135.9 Q 185.18 137.94 184.7 138.6 L 184.7 138.6 L 184.7 138.6 Q 182.48 141.72 180.23 144.75 L 180.23 144.75 L 180.23 144.75 Q 177.98 147.78 175.7 150.84 L 175.7 150.84 L 175.7 150.84 Q 173.78 153.36 171.92 155.85 L 171.92 155.85 L 171.92 155.85 Q 170.06 158.34 168.26 160.92 L 168.26 160.92 L 168.26 160.92 Q 170.36 159.42 172.52 158.01 L 172.52 158.01 L 172.52 158.01 Q 174.68 156.6 176.9 155.22 L 176.9 155.22 L 176.9 155.22 Q 177.38 154.92 177.86 154.68 L 177.86 154.68 L 177.86 154.68 Q 178.34 154.44 178.82 154.2 L 178.82 154.2 L 178.82 154.2 Q 179.36 153.96 179.36 154.08 L 179.36 154.08 L 179.36 154.08 Q 179.36 154.26 178.67 154.89 L 178.67 154.89 L 178.67 154.89 Q 177.98 155.52 177.08 156.24 L 177.08 156.24 L 177.08 156.24 Q 176.18 156.96 175.34 157.59 L 175.34 157.59 L 175.34 157.59 Q 174.5 158.22 174.2 158.46 L 174.2 158.46 L 174.2 158.46 Q 172.64 159.72 171.08 160.98 L 171.08 160.98 L 171.08 160.98 Q 169.52 162.24 167.96 163.62 L 167.96 163.62 L 167.96 163.62 Q 167.36 164.1 166.79 164.64 L 166.79 164.64 L 166.79 164.64 Q 166.22 165.18 165.62 165.72 L 165.62 165.72 L 165.62 165.72 Q 165.14 166.14 164.6 166.44 L 164.6 166.44 L 164.6 166.44 Q 164.06 166.74 163.34 166.5 L 163.34 166.5 L 163.34 166.5 Q 162.5 166.2 162.29 165.6 L 162.29 165.6 L 162.29 165.6 Q 162.08 165 162.26 164.28 L 162.26 164.28 L 162.26 164.28 Q 162.44 163.56 162.83 162.87 L 162.83 162.87 L 162.83 162.87 Q 163.22 162.18 163.52 161.7 L 163.52 161.7 L 163.52 161.7 Q 164.12 160.68 164.72 159.78 L 164.72 159.78 L 164.72 159.78 Q 165.32 158.88 165.98 157.92 L 165.98 157.92 L 165.98 157.92 Q 168.26 154.5 170.63 151.26 L 170.63 151.26 L 170.63 151.26 Q 173 148.02 175.34 144.66 L 175.34 144.66 L 175.34 144.66 Q 176 143.76 177.11 142.26 L 177.11 142.26 L 177.11 142.26 Q 178.22 140.76 179.51 139.02 L 179.51 139.02 L 179.51 139.02 Q 180.8 137.28 182.24 135.39 L 182.24 135.39 L 182.24 135.39 Q 183.68 133.5 185 131.76 L 185 131.76 L 185 131.76 Q 183.62 131.88 182 132.06 L 182 132.06 L 182 132.06 Q 180.38 132.24 178.76 132.36 L 178.76 132.36 L 178.76 132.36 Q 177.14 132.48 175.64 132.57 L 175.64 132.57 L 175.64 132.57 Q 174.14 132.66 173 132.66 L 173 132.66 L 173 132.66 Q 170.6 132.66 170.6 132.24 L 170.6 132.24 L 170.6 132.24 Q 170.54 132.06 171.14 131.82 L 171.14 131.82 L 171.14 131.82 Q 171.74 131.58 172.82 131.28 L 172.82 131.28 L 172.82 131.28 Q 175.94 130.38 179.72 129.9 L 179.72 129.9 L 179.72 129.9 Q 183.5 129.42 187.22 128.76 L 187.22 128.76 L 187.22 128.76 Q 188.3 127.38 189.02 126.42 L 189.02 126.42 L 189.02 126.42 Q 189.74 125.46 189.92 125.28 L 189.92 125.28 L 189.92 125.28 Q 192.26 122.34 194.63 119.4 L 194.63 119.4 L 194.63 119.4 Q 197 116.46 199.7 113.82 L 199.7 113.82 L 199.7 113.82 Q 199.76 113.76 200.03 113.52 L 200.03 113.52 L 200.03 113.52 Q 200.3 113.28 200.57 113.13 L 200.57 113.13 L 200.57 113.13 Q 200.84 112.98 200.99 113.04 L 200.99 113.04 L 200.99 113.04 Q 201.14 113.1 200.96 113.52 L 200.96 113.52 L 200.96 113.52 Q 200.18 115.26 199.25 116.82 L 199.25 116.82 L 199.25 116.82 Q 198.32 118.38 197.21 120.09 L 197.21 120.09 L 197.21 120.09 Q 196.1 121.8 194.78 123.75 L 194.78 123.75 L 194.78 123.75 Q 193.46 125.7 191.84 128.16 L 191.84 128.16 L 191.84 128.16 Q 193.76 127.92 195.8 127.71 L 195.8 127.71 L 195.8 127.71 Q 197.84 127.5 199.94 127.26 L 199.94 127.26 L 199.94 127.26 Q 205.52 126.72 210.5 126.21 L 210.5 126.21 L 210.5 126.21 Q 215.48 125.7 220.82 125.22 L 220.82 125.22 L 220.82 125.22 Q 222.86 125.04 224.45 124.92 L 224.45 124.92 L 224.45 124.92 Q 226.04 124.8 227.18 124.74 Z  M 188.84 153.72 L 188.84 153.72 L 188.84 153.72 Q 188.96 153.6 189.47 153.36 L 189.47 153.36 L 189.47 153.36 Q 189.98 153.12 190.04 153.24 L 190.04 153.24 L 190.04 153.24 Q 190.04 153.3 190.04 153.33 L 190.04 153.33 L 190.04 153.33 Q 190.04 153.36 189.86 153.54 L 189.86 153.54 L 189.86 153.54 Q 187.64 155.58 185.33 157.35 L 185.33 157.35 L 185.33 157.35 Q 183.02 159.12 180.74 161.04 L 180.74 161.04 L 180.74 161.04 Q 179.78 161.88 178.37 163.2 L 178.37 163.2 L 178.37 163.2 Q 176.96 164.52 176.06 165.36 L 176.06 165.36 L 176.06 165.36 Q 175.7 165.66 175.25 165.99 L 175.25 165.99 L 175.25 165.99 Q 174.8 166.32 174.29 166.53 L 174.29 166.53 L 174.29 166.53 Q 173.78 166.74 173.27 166.68 L 173.27 166.68 L 173.27 166.68 Q 172.76 166.62 172.22 166.14 L 172.22 166.14 L 172.22 166.14 Q 171.74 165.66 171.89 164.82 L 171.89 164.82 L 171.89 164.82 Q 172.04 163.98 172.34 163.32 L 172.34 163.32 L 172.34 163.32 Q 172.94 161.82 174.2 159.93 L 174.2 159.93 L 174.2 159.93 Q 175.46 158.04 177.05 156.06 L 177.05 156.06 L 177.05 156.06 Q 178.64 154.08 180.35 152.19 L 180.35 152.19 L 180.35 152.19 Q 182.06 150.3 183.56 148.8 L 183.56 148.8 L 183.56 148.8 Q 185.06 147.3 186.14 146.34 L 186.14 146.34 L 186.14 146.34 Q 187.22 145.38 187.58 145.26 L 187.58 145.26 L 187.58 145.26 Q 188 145.08 188.24 145.2 L 188.24 145.2 L 188.24 145.2 Q 188.36 145.26 188.45 145.38 L 188.45 145.38 L 188.45 145.38 Q 188.54 145.5 188.42 145.74 L 188.42 145.74 L 188.42 145.74 Q 187.64 147.18 186.56 148.86 L 186.56 148.86 L 186.56 148.86 Q 185.48 150.54 184.22 152.37 L 184.22 152.37 L 184.22 152.37 Q 182.96 154.2 181.61 156.15 L 181.61 156.15 L 181.61 156.15 Q 180.26 158.1 179 160.14 L 179 160.14 L 179 160.14 Q 179.54 159.72 180.44 159.09 L 180.44 159.09 L 180.44 159.09 Q 181.34 158.46 181.88 158.1 L 181.88 158.1 L 181.88 158.1 Q 183.62 156.96 185.3 155.85 L 185.3 155.85 L 185.3 155.85 Q 186.98 154.74 188.84 153.72 Z  M 195.56 135.66 L 195.56 135.66 L 195.56 135.66 Q 195.74 136.14 195.59 136.65 L 195.59 136.65 L 195.59 136.65 Q 195.44 137.16 195.11 137.61 L 195.11 137.61 L 195.11 137.61 Q 194.78 138.06 194.36 138.42 L 194.36 138.42 L 194.36 138.42 Q 193.94 138.78 193.52 138.96 L 193.52 138.96 L 193.52 138.96 Q 193.16 139.14 192.65 139.23 L 192.65 139.23 L 192.65 139.23 Q 192.14 139.32 191.66 139.29 L 191.66 139.29 L 191.66 139.29 Q 191.18 139.26 190.76 139.08 L 190.76 139.08 L 190.76 139.08 Q 190.34 138.9 190.16 138.42 L 190.16 138.42 L 190.16 138.42 Q 189.8 137.46 190.4 136.59 L 190.4 136.59 L 190.4 136.59 Q 191 135.72 191.78 135.3 L 191.78 135.3 L 191.78 135.3 Q 192.14 135.06 192.68 134.91 L 192.68 134.91 L 192.68 134.91 Q 193.22 134.76 193.79 134.76 L 193.79 134.76 L 193.79 134.76 Q 194.36 134.76 194.84 134.94 L 194.84 134.94 L 194.84 134.94 Q 195.32 135.12 195.56 135.66 Z  M 205.28 145.14 L 205.28 145.14 L 205.28 145.14 Q 206.06 145.38 206.54 145.95 L 206.54 145.95 L 206.54 145.95 Q 207.02 146.52 206.96 146.46 L 206.96 146.46 L 206.96 146.46 Q 206.78 146.4 206.45 146.31 L 206.45 146.31 L 206.45 146.31 Q 206.12 146.22 205.52 146.16 L 205.52 146.16 L 205.52 146.16 Q 204.38 146.04 203.24 146.37 L 203.24 146.37 L 203.24 146.37 Q 202.1 146.7 200.96 147.33 L 200.96 147.33 L 200.96 147.33 Q 199.82 147.96 198.65 148.83 L 198.65 148.83 L 198.65 148.83 Q 197.48 149.7 196.28 150.66 L 196.28 150.66 L 196.28 150.66 Q 195.74 151.14 194.3 152.58 L 194.3 152.58 L 194.3 152.58 Q 192.86 154.02 191.39 155.91 L 191.39 155.91 L 191.39 155.91 Q 189.92 157.8 188.81 159.87 L 188.81 159.87 L 188.81 159.87 Q 187.7 161.94 187.7 163.62 L 187.7 163.62 L 187.7 163.62 Q 189.44 163.38 191.78 161.91 L 191.78 161.91 L 191.78 161.91 Q 194.12 160.44 196.34 158.43 L 196.34 158.43 L 196.34 158.43 Q 198.56 156.42 200.36 154.17 L 200.36 154.17 L 200.36 154.17 Q 202.16 151.92 202.82 150.06 L 202.82 150.06 L 202.82 150.06 Q 203.06 149.46 203.12 148.89 L 203.12 148.89 L 203.12 148.89 Q 203.18 148.32 203 147.66 L 203 147.66 L 203 147.66 Q 202.88 147.3 202.88 147.24 L 202.88 147.24 L 202.88 147.24 Q 202.94 147 203.39 147.51 L 203.39 147.51 L 203.39 147.51 Q 203.84 148.02 204.02 148.74 L 204.02 148.74 L 204.02 148.74 Q 204.74 151.44 203.33 154.32 L 203.33 154.32 L 203.33 154.32 Q 201.92 157.2 199.43 159.66 L 199.43 159.66 L 199.43 159.66 Q 196.94 162.12 193.97 163.92 L 193.97 163.92 L 193.97 163.92 Q 191 165.72 188.6 166.32 L 188.6 166.32 L 188.6 166.32 Q 186.98 166.8 185.54 166.32 L 185.54 166.32 L 185.54 166.32 Q 184.34 165.84 183.86 164.64 L 183.86 164.64 L 183.86 164.64 Q 183.38 163.44 183.56 162.24 L 183.56 162.24 L 183.56 162.24 Q 183.8 160.68 184.43 159.27 L 184.43 159.27 L 184.43 159.27 Q 185.06 157.86 186.02 156.48 L 186.02 156.48 L 186.02 156.48 Q 186.86 155.28 188.12 153.84 L 188.12 153.84 L 188.12 153.84 Q 189.38 152.4 190.97 150.99 L 190.97 150.99 L 190.97 150.99 Q 192.56 149.58 194.39 148.29 L 194.39 148.29 L 194.39 148.29 Q 196.22 147 198.08 146.16 L 198.08 146.16 L 198.08 146.16 Q 199.94 145.32 201.77 144.99 L 201.77 144.99 L 201.77 144.99 Q 203.6 144.66 205.28 145.14 Z  M 227.78 154.98 L 227.78 154.98 L 227.78 154.98 Q 227.84 155.1 227.54 155.4 L 227.54 155.4 L 227.54 155.4 Q 227.24 155.7 226.85 156.03 L 226.85 156.03 L 226.85 156.03 Q 226.46 156.36 226.07 156.66 L 226.07 156.66 L 226.07 156.66 Q 225.68 156.96 225.62 157.02 L 225.62 157.02 L 225.62 157.02 Q 224.96 157.56 224.27 158.1 L 224.27 158.1 L 224.27 158.1 Q 223.58 158.64 222.86 159.18 L 222.86 159.18 L 222.86 159.18 Q 220.94 160.74 218.78 162.21 L 218.78 162.21 L 218.78 162.21 Q 216.62 163.68 214.7 165.6 L 214.7 165.6 L 214.7 165.6 Q 214.4 165.84 214.07 166.11 L 214.07 166.11 L 214.07 166.11 Q 213.74 166.38 213.35 166.56 L 213.35 166.56 L 213.35 166.56 Q 212.96 166.74 212.57 166.74 L 212.57 166.74 L 212.57 166.74 Q 212.18 166.74 211.76 166.38 L 211.76 166.38 L 211.76 166.38 Q 211.04 165.9 211.07 164.82 L 211.07 164.82 L 211.07 164.82 Q 211.1 163.74 211.49 162.51 L 211.49 162.51 L 211.49 162.51 Q 211.88 161.28 212.42 160.14 L 212.42 160.14 L 212.42 160.14 Q 212.96 159 213.32 158.34 L 213.32 158.34 L 213.32 158.34 Q 214.16 156.72 215.54 154.8 L 215.54 154.8 L 215.54 154.8 Q 216.92 152.88 218 151.44 L 218 151.44 L 218 151.44 Q 215.96 152.7 214.19 153.75 L 214.19 153.75 L 214.19 153.75 Q 212.42 154.8 210.62 156.24 L 210.62 156.24 L 210.62 156.24 Q 208.82 157.68 206.9 159.75 L 206.9 159.75 L 206.9 159.75 Q 204.98 161.82 202.76 165.18 L 202.76 165.18 L 202.76 165.18 Q 202.52 165.48 202.28 165.81 L 202.28 165.81 L 202.28 165.81 Q 202.04 166.14 201.68 166.26 L 201.68 166.26 L 201.68 166.26 Q 201.02 166.56 200.33 166.17 L 200.33 166.17 L 200.33 166.17 Q 199.64 165.78 199.64 165 L 199.64 165 L 199.64 165 Q 199.52 164.04 200.69 161.91 L 200.69 161.91 L 200.69 161.91 Q 201.86 159.78 203.84 157.17 L 203.84 157.17 L 203.84 157.17 Q 205.82 154.56 208.37 151.74 L 208.37 151.74 L 208.37 151.74 Q 210.92 148.92 213.62 146.64 L 213.62 146.64 L 213.62 146.64 Q 214.22 146.16 214.94 145.59 L 214.94 145.59 L 214.94 145.59 Q 215.66 145.02 216.2 144.9 L 216.2 144.9 L 216.2 144.9 Q 216.32 144.9 216.11 145.26 L 216.11 145.26 L 216.11 145.26 Q 215.9 145.62 215.54 146.13 L 215.54 146.13 L 215.54 146.13 Q 215.18 146.64 214.79 147.18 L 214.79 147.18 L 214.79 147.18 Q 214.4 147.72 214.16 148.08 L 214.16 148.08 L 214.16 148.08 Q 213.02 149.64 212.3 150.66 L 212.3 150.66 L 212.3 150.66 Q 211.58 151.68 210.92 152.64 L 210.92 152.64 L 210.92 152.64 Q 210.26 153.6 209.45 154.71 L 209.45 154.71 L 209.45 154.71 Q 208.64 155.82 207.26 157.62 L 207.26 157.62 L 207.26 157.62 Q 209.36 155.94 211.73 153.99 L 211.73 153.99 L 211.73 153.99 Q 214.1 152.04 216.44 150.18 L 216.44 150.18 L 216.44 150.18 Q 218.78 148.32 220.91 146.82 L 220.91 146.82 L 220.91 146.82 Q 223.04 145.32 224.72 144.54 L 224.72 144.54 L 224.72 144.54 Q 225.56 144.18 226.46 144.66 L 226.46 144.66 L 226.46 144.66 Q 227.12 145.02 227.3 145.77 L 227.3 145.77 L 227.3 145.77 Q 227.48 146.52 227 147.12 L 227 147.12 L 227 147.12 Q 226.1 148.5 224.51 150.06 L 224.51 150.06 L 224.51 150.06 Q 222.92 151.62 221.66 153.06 L 221.66 153.06 L 221.66 153.06 Q 220.4 154.5 219.23 156 L 219.23 156 L 219.23 156 Q 218.06 157.5 217.04 159.12 L 217.04 159.12 L 217.04 159.12 Q 216.44 160.08 215.81 161.1 L 215.81 161.1 L 215.81 161.1 Q 215.18 162.12 214.82 163.26 L 214.82 163.26 L 214.82 163.26 Q 216.02 162.3 217.28 161.43 L 217.28 161.43 L 217.28 161.43 Q 218.54 160.56 219.8 159.72 L 219.8 159.72 L 219.8 159.72 Q 219.98 159.6 220.61 159.18 L 220.61 159.18 L 220.61 159.18 Q 221.24 158.76 222.11 158.19 L 222.11 158.19 L 222.11 158.19 Q 222.98 157.62 223.94 156.99 L 223.94 156.99 L 223.94 156.99 Q 224.9 156.36 225.74 155.88 L 225.74 155.88 L 225.74 155.88 Q 226.58 155.4 227.15 155.13 L 227.15 155.13 L 227.15 155.13 Q 227.72 154.86 227.78 154.98 Z  M 147.8 20.88 L 147.8 20.88 L 147.8 20.88 Q 147.44 23.34 146.21 25.44 L 146.21 25.44 L 146.21 25.44 Q 144.98 27.54 143.21 29.34 L 143.21 29.34 L 143.21 29.34 Q 141.44 31.14 139.37 32.64 L 139.37 32.64 L 139.37 32.64 Q 137.3 34.14 135.32 35.4 L 135.32 35.4 L 135.32 35.4 Q 128.96 39.36 121.64 41.94 L 121.64 41.94 L 121.64 41.94 Q 119.54 42.72 117.29 43.38 L 117.29 43.38 L 117.29 43.38 Q 115.04 44.04 112.76 44.52 L 112.76 44.52 L 112.76 44.52 Q 112.52 44.76 111.98 45.42 L 111.98 45.42 L 111.98 45.42 Q 111.44 46.08 110.78 46.83 L 110.78 46.83 L 110.78 46.83 Q 110.12 47.58 109.52 48.3 L 109.52 48.3 L 109.52 48.3 Q 108.92 49.02 108.62 49.38 L 108.62 49.38 L 108.62 49.38 Q 103.34 55.38 98.18 61.26 L 98.18 61.26 L 98.18 61.26 Q 93.02 67.14 87.68 73.08 L 87.68 73.08 L 87.68 73.08 Q 86.42 74.46 85.16 75.81 L 85.16 75.81 L 85.16 75.81 Q 83.9 77.16 82.58 78.54 L 82.58 78.54 L 82.58 78.54 Q 82.04 79.14 81.47 79.74 L 81.47 79.74 L 81.47 79.74 Q 80.9 80.34 80.24 80.88 L 80.24 80.88 L 80.24 80.88 Q 80.24 80.88 80.06 81.03 L 80.06 81.03 L 80.06 81.03 Q 79.88 81.18 79.7 81.33 L 79.7 81.33 L 79.7 81.33 Q 79.52 81.48 79.37 81.54 L 79.37 81.54 L 79.37 81.54 Q 79.22 81.6 79.22 81.48 L 79.22 81.48 L 79.22 81.48 Q 79.34 81.12 79.55 80.67 L 79.55 80.67 L 79.55 80.67 Q 79.76 80.22 80.06 79.8 L 80.06 79.8 L 80.06 79.8 Q 81.5 77.46 83.15 75.27 L 83.15 75.27 L 83.15 75.27 Q 84.8 73.08 86.42 70.86 L 86.42 70.86 L 86.42 70.86 Q 91.1 64.5 95.96 58.32 L 95.96 58.32 L 95.96 58.32 Q 100.82 52.14 105.92 45.96 L 105.92 45.96 L 105.92 45.96 Q 104.84 46.14 103.76 46.32 L 103.76 46.32 L 103.76 46.32 Q 102.68 46.5 101.6 46.62 L 101.6 46.62 L 101.6 46.62 Q 98.6 47.1 95.63 47.31 L 95.63 47.31 L 95.63 47.31 Q 92.66 47.52 89.6 47.4 L 89.6 47.4 L 89.6 47.4 Q 89.3 47.34 89.03 47.31 L 89.03 47.31 L 89.03 47.31 Q 88.76 47.28 88.58 47.16 L 88.58 47.16 L 88.58 47.16 Q 88.46 47.1 88.7 46.95 L 88.7 46.95 L 88.7 46.95 Q 88.94 46.8 89.27 46.68 L 89.27 46.68 L 89.27 46.68 Q 89.6 46.56 89.93 46.47 L 89.93 46.47 L 89.93 46.47 Q 90.26 46.38 90.32 46.38 L 90.32 46.38 L 90.32 46.38 Q 91.22 46.2 92.93 45.78 L 92.93 45.78 L 92.93 45.78 Q 94.64 45.36 96.74 44.91 L 96.74 44.91 L 96.74 44.91 Q 98.84 44.46 101.03 43.95 L 101.03 43.95 L 101.03 43.95 Q 103.22 43.44 105.05 42.99 L 105.05 42.99 L 105.05 42.99 Q 106.88 42.54 108.11 42.18 L 108.11 42.18 L 108.11 42.18 Q 109.34 41.82 109.46 41.7 L 109.46 41.7 L 109.46 41.7 Q 110.18 40.92 110.69 40.32 L 110.69 40.32 L 110.69 40.32 Q 111.2 39.72 111.62 39.21 L 111.62 39.21 L 111.62 39.21 Q 112.04 38.7 112.46 38.22 L 112.46 38.22 L 112.46 38.22 Q 112.88 37.74 113.42 37.14 L 113.42 37.14 L 113.42 37.14 Q 115.94 34.2 118.52 31.35 L 118.52 31.35 L 118.52 31.35 Q 121.1 28.5 123.92 25.8 L 123.92 25.8 L 123.92 25.8 Q 124.82 24.9 125.93 24 L 125.93 24 L 125.93 24 Q 127.04 23.1 127.94 22.44 L 127.94 22.44 L 127.94 22.44 Q 128.12 22.32 128.51 22.08 L 128.51 22.08 L 128.51 22.08 Q 128.9 21.84 129.02 22.08 L 129.02 22.08 L 129.02 22.08 Q 129.2 22.44 128.84 23.28 L 128.84 23.28 L 128.84 23.28 Q 128.48 24.12 127.97 25.02 L 127.97 25.02 L 127.97 25.02 Q 127.46 25.92 126.92 26.7 L 126.92 26.7 L 126.92 26.7 Q 126.38 27.48 126.2 27.72 L 126.2 27.72 L 126.2 27.72 Q 123.98 30.9 121.58 33.87 L 121.58 33.87 L 121.58 33.87 Q 119.18 36.84 116.72 39.84 L 116.72 39.84 L 116.72 39.84 Q 122.06 38.16 127.43 36.12 L 127.43 36.12 L 127.43 36.12 Q 132.8 34.08 137.48 30.9 L 137.48 30.9 L 137.48 30.9 Q 138.98 29.88 140.33 28.77 L 140.33 28.77 L 140.33 28.77 Q 141.68 27.66 142.88 26.34 L 142.88 26.34 L 142.88 26.34 Q 143.54 25.62 144.14 24.72 L 144.14 24.72 L 144.14 24.72 Q 144.74 23.82 145.01 22.83 L 145.01 22.83 L 145.01 22.83 Q 145.28 21.84 145.16 20.88 L 145.16 20.88 L 145.16 20.88 Q 145.04 19.92 144.32 19.02 L 144.32 19.02 L 144.32 19.02 Q 143.12 17.58 141.32 16.83 L 141.32 16.83 L 141.32 16.83 Q 139.52 16.08 137.78 15.66 L 137.78 15.66 L 137.78 15.66 Q 134 14.76 129.95 14.73 L 129.95 14.73 L 129.95 14.73 Q 125.9 14.7 122.06 15 L 122.06 15 L 122.06 15 Q 113.96 15.54 106.04 17.34 L 106.04 17.34 L 106.04 17.34 Q 98.48 19.08 91.31 21.75 L 91.31 21.75 L 91.31 21.75 Q 84.14 24.42 77.24 27.96 L 77.24 27.96 L 77.24 27.96 Q 76.46 28.38 75.71 28.77 L 75.71 28.77 L 75.71 28.77 Q 74.96 29.16 74.18 29.52 L 74.18 29.52 L 74.18 29.52 Q 74.12 29.58 73.79 29.7 L 73.79 29.7 L 73.79 29.7 Q 73.46 29.82 73.52 29.76 L 73.52 29.76 L 73.52 29.76 Q 73.64 29.46 73.97 29.22 L 73.97 29.22 L 73.97 29.22 Q 74.3 28.98 74.48 28.86 L 74.48 28.86 L 74.48 28.86 Q 75.86 27.84 77.21 26.91 L 77.21 26.91 L 77.21 26.91 Q 78.56 25.98 79.94 25.14 L 79.94 25.14 L 79.94 25.14 Q 83.48 22.92 87.98 20.7 L 87.98 20.7 L 87.98 20.7 Q 92.48 18.48 97.58 16.56 L 97.58 16.56 L 97.58 16.56 Q 102.68 14.64 108.14 13.2 L 108.14 13.2 L 108.14 13.2 Q 113.6 11.76 119.03 11.07 L 119.03 11.07 L 119.03 11.07 Q 124.46 10.38 129.71 10.65 L 129.71 10.65 L 129.71 10.65 Q 134.96 10.92 139.58 12.42 L 139.58 12.42 L 139.58 12.42 Q 141.02 12.9 142.46 13.62 L 142.46 13.62 L 142.46 13.62 Q 143.9 14.34 145.1 15.39 L 145.1 15.39 L 145.1 15.39 Q 146.3 16.44 147.05 17.82 L 147.05 17.82 L 147.05 17.82 Q 147.8 19.2 147.8 20.88 Z  M 137.18 54.06 L 137.18 54.06 L 137.18 54.06 Q 137.3 53.94 137.81 53.7 L 137.81 53.7 L 137.81 53.7 Q 138.32 53.46 138.38 53.58 L 138.38 53.58 L 138.38 53.58 Q 138.38 53.64 138.38 53.67 L 138.38 53.67 L 138.38 53.67 Q 138.38 53.7 138.2 53.88 L 138.2 53.88 L 138.2 53.88 Q 135.98 55.92 133.67 57.69 L 133.67 57.69 L 133.67 57.69 Q 131.36 59.46 129.08 61.38 L 129.08 61.38 L 129.08 61.38 Q 128.12 62.22 126.71 63.54 L 126.71 63.54 L 126.71 63.54 Q 125.3 64.86 124.4 65.7 L 124.4 65.7 L 124.4 65.7 Q 124.04 66 123.59 66.33 L 123.59 66.33 L 123.59 66.33 Q 123.14 66.66 122.63 66.87 L 122.63 66.87 L 122.63 66.87 Q 122.12 67.08 121.61 67.02 L 121.61 67.02 L 121.61 67.02 Q 121.1 66.96 120.56 66.48 L 120.56 66.48 L 120.56 66.48 Q 120.08 66 120.23 65.16 L 120.23 65.16 L 120.23 65.16 Q 120.38 64.32 120.68 63.66 L 120.68 63.66 L 120.68 63.66 Q 121.28 62.16 122.54 60.27 L 122.54 60.27 L 122.54 60.27 Q 123.8 58.38 125.39 56.4 L 125.39 56.4 L 125.39 56.4 Q 126.98 54.42 128.69 52.53 L 128.69 52.53 L 128.69 52.53 Q 130.4 50.64 131.9 49.14 L 131.9 49.14 L 131.9 49.14 Q 133.4 47.64 134.48 46.68 L 134.48 46.68 L 134.48 46.68 Q 135.56 45.72 135.92 45.6 L 135.92 45.6 L 135.92 45.6 Q 136.34 45.42 136.58 45.54 L 136.58 45.54 L 136.58 45.54 Q 136.7 45.6 136.79 45.72 L 136.79 45.72 L 136.79 45.72 Q 136.88 45.84 136.76 46.08 L 136.76 46.08 L 136.76 46.08 Q 135.98 47.52 134.9 49.2 L 134.9 49.2 L 134.9 49.2 Q 133.82 50.88 132.56 52.71 L 132.56 52.71 L 132.56 52.71 Q 131.3 54.54 129.95 56.49 L 129.95 56.49 L 129.95 56.49 Q 128.6 58.44 127.34 60.48 L 127.34 60.48 L 127.34 60.48 Q 127.88 60.06 128.78 59.43 L 128.78 59.43 L 128.78 59.43 Q 129.68 58.8 130.22 58.44 L 130.22 58.44 L 130.22 58.44 Q 131.96 57.3 133.64 56.19 L 133.64 56.19 L 133.64 56.19 Q 135.32 55.08 137.18 54.06 Z  M 143.9 36 L 143.9 36 L 143.9 36 Q 144.08 36.48 143.93 36.99 L 143.93 36.99 L 143.93 36.99 Q 143.78 37.5 143.45 37.95 L 143.45 37.95 L 143.45 37.95 Q 143.12 38.4 142.7 38.76 L 142.7 38.76 L 142.7 38.76 Q 142.28 39.12 141.86 39.3 L 141.86 39.3 L 141.86 39.3 Q 141.5 39.48 140.99 39.57 L 140.99 39.57 L 140.99 39.57 Q 140.48 39.66 140 39.63 L 140 39.63 L 140 39.63 Q 139.52 39.6 139.1 39.42 L 139.1 39.42 L 139.1 39.42 Q 138.68 39.24 138.5 38.76 L 138.5 38.76 L 138.5 38.76 Q 138.14 37.8 138.74 36.93 L 138.74 36.93 L 138.74 36.93 Q 139.34 36.06 140.12 35.64 L 140.12 35.64 L 140.12 35.64 Q 140.48 35.4 141.02 35.25 L 141.02 35.25 L 141.02 35.25 Q 141.56 35.1 142.13 35.1 L 142.13 35.1 L 142.13 35.1 Q 142.7 35.1 143.18 35.28 L 143.18 35.28 L 143.18 35.28 Q 143.66 35.46 143.9 36 Z  M 194.9 25.08 L 194.9 25.08 L 194.9 25.08 Q 197.24 24.9 197.24 25.08 L 197.24 25.08 L 197.24 25.08 Q 197.3 25.14 194.96 25.62 L 194.96 25.62 L 194.96 25.62 Q 193.88 25.86 192.29 26.13 L 192.29 26.13 L 192.29 26.13 Q 190.7 26.4 188.72 26.76 L 188.72 26.76 L 188.72 26.76 Q 183.44 27.6 178.49 28.41 L 178.49 28.41 L 178.49 28.41 Q 173.54 29.22 167.96 30.06 L 167.96 30.06 L 167.96 30.06 Q 165.2 30.48 162.59 30.84 L 162.59 30.84 L 162.59 30.84 Q 159.98 31.2 157.52 31.5 L 157.52 31.5 L 157.52 31.5 Q 155.72 34.2 154.31 36.24 L 154.31 36.24 L 154.31 36.24 Q 152.9 38.28 152.42 38.94 L 152.42 38.94 L 152.42 38.94 Q 150.2 42.06 147.95 45.09 L 147.95 45.09 L 147.95 45.09 Q 145.7 48.12 143.42 51.18 L 143.42 51.18 L 143.42 51.18 Q 141.5 53.7 139.64 56.19 L 139.64 56.19 L 139.64 56.19 Q 137.78 58.68 135.98 61.26 L 135.98 61.26 L 135.98 61.26 Q 138.08 59.76 140.24 58.35 L 140.24 58.35 L 140.24 58.35 Q 142.4 56.94 144.62 55.56 L 144.62 55.56 L 144.62 55.56 Q 145.1 55.26 145.58 55.02 L 145.58 55.02 L 145.58 55.02 Q 146.06 54.78 146.54 54.54 L 146.54 54.54 L 146.54 54.54 Q 147.08 54.3 147.08 54.42 L 147.08 54.42 L 147.08 54.42 Q 147.08 54.6 146.39 55.23 L 146.39 55.23 L 146.39 55.23 Q 145.7 55.86 144.8 56.58 L 144.8 56.58 L 144.8 56.58 Q 143.9 57.3 143.06 57.93 L 143.06 57.93 L 143.06 57.93 Q 142.22 58.56 141.92 58.8 L 141.92 58.8 L 141.92 58.8 Q 140.36 60.06 138.8 61.32 L 138.8 61.32 L 138.8 61.32 Q 137.24 62.58 135.68 63.96 L 135.68 63.96 L 135.68 63.96 Q 135.08 64.44 134.51 64.98 L 134.51 64.98 L 134.51 64.98 Q 133.94 65.52 133.34 66.06 L 133.34 66.06 L 133.34 66.06 Q 132.86 66.48 132.32 66.78 L 132.32 66.78 L 132.32 66.78 Q 131.78 67.08 131.06 66.84 L 131.06 66.84 L 131.06 66.84 Q 130.22 66.54 130.01 65.94 L 130.01 65.94 L 130.01 65.94 Q 129.8 65.34 129.98 64.62 L 129.98 64.62 L 129.98 64.62 Q 130.16 63.9 130.55 63.21 L 130.55 63.21 L 130.55 63.21 Q 130.94 62.52 131.24 62.04 L 131.24 62.04 L 131.24 62.04 Q 131.84 61.02 132.44 60.12 L 132.44 60.12 L 132.44 60.12 Q 133.04 59.22 133.7 58.26 L 133.7 58.26 L 133.7 58.26 Q 135.98 54.84 138.35 51.6 L 138.35 51.6 L 138.35 51.6 Q 140.72 48.36 143.06 45 L 143.06 45 L 143.06 45 Q 143.72 44.1 144.83 42.6 L 144.83 42.6 L 144.83 42.6 Q 145.94 41.1 147.23 39.36 L 147.23 39.36 L 147.23 39.36 Q 148.52 37.62 149.96 35.73 L 149.96 35.73 L 149.96 35.73 Q 151.4 33.84 152.72 32.1 L 152.72 32.1 L 152.72 32.1 Q 151.34 32.22 149.72 32.4 L 149.72 32.4 L 149.72 32.4 Q 148.1 32.58 146.48 32.7 L 146.48 32.7 L 146.48 32.7 Q 144.86 32.82 143.36 32.91 L 143.36 32.91 L 143.36 32.91 Q 141.86 33 140.72 33 L 140.72 33 L 140.72 33 Q 138.32 33 138.32 32.58 L 138.32 32.58 L 138.32 32.58 Q 138.26 32.4 138.86 32.16 L 138.86 32.16 L 138.86 32.16 Q 139.46 31.92 140.54 31.62 L 140.54 31.62 L 140.54 31.62 Q 143.66 30.72 147.44 30.24 L 147.44 30.24 L 147.44 30.24 Q 151.22 29.76 154.94 29.1 L 154.94 29.1 L 154.94 29.1 Q 156.02 27.72 156.74 26.76 L 156.74 26.76 L 156.74 26.76 Q 157.46 25.8 157.64 25.62 L 157.64 25.62 L 157.64 25.62 Q 159.98 22.68 162.35 19.74 L 162.35 19.74 L 162.35 19.74 Q 164.72 16.8 167.42 14.16 L 167.42 14.16 L 167.42 14.16 Q 167.48 14.1 167.75 13.86 L 167.75 13.86 L 167.75 13.86 Q 168.02 13.62 168.29 13.47 L 168.29 13.47 L 168.29 13.47 Q 168.56 13.32 168.71 13.38 L 168.71 13.38 L 168.71 13.38 Q 168.86 13.44 168.68 13.86 L 168.68 13.86 L 168.68 13.86 Q 167.9 15.6 166.97 17.16 L 166.97 17.16 L 166.97 17.16 Q 166.04 18.72 164.93 20.43 L 164.93 20.43 L 164.93 20.43 Q 163.82 22.14 162.5 24.09 L 162.5 24.09 L 162.5 24.09 Q 161.18 26.04 159.56 28.5 L 159.56 28.5 L 159.56 28.5 Q 161.48 28.26 163.52 28.05 L 163.52 28.05 L 163.52 28.05 Q 165.56 27.84 167.66 27.6 L 167.66 27.6 L 167.66 27.6 Q 173.24 27.06 178.22 26.55 L 178.22 26.55 L 178.22 26.55 Q 183.2 26.04 188.54 25.56 L 188.54 25.56 L 188.54 25.56 Q 190.58 25.38 192.17 25.26 L 192.17 25.26 L 192.17 25.26 Q 193.76 25.14 194.9 25.08 Z  M 162.74 54.42 L 162.74 54.42 L 162.74 54.42 Q 163.22 54 163.76 53.64 L 163.76 53.64 L 163.76 53.64 Q 164.3 53.28 164.36 53.46 L 164.36 53.46 L 164.36 53.46 Q 164.36 53.58 163.76 54.24 L 163.76 54.24 L 163.76 54.24 Q 163.16 54.9 162.5 55.56 L 162.5 55.56 L 162.5 55.56 Q 159.5 58.56 156.41 61.02 L 156.41 61.02 L 156.41 61.02 Q 153.32 63.48 149.36 65.58 L 149.36 65.58 L 149.36 65.58 Q 148.52 65.94 147.53 66.36 L 147.53 66.36 L 147.53 66.36 Q 146.54 66.78 145.49 66.96 L 145.49 66.96 L 145.49 66.96 Q 144.44 67.14 143.42 66.93 L 143.42 66.93 L 143.42 66.93 Q 142.4 66.72 141.62 65.88 L 141.62 65.88 L 141.62 65.88 Q 140.66 64.8 140.87 63.18 L 140.87 63.18 L 140.87 63.18 Q 141.08 61.56 141.86 59.91 L 141.86 59.91 L 141.86 59.91 Q 142.64 58.26 143.66 56.76 L 143.66 56.76 L 143.66 56.76 Q 144.68 55.26 145.4 54.48 L 145.4 54.48 L 145.4 54.48 Q 146.48 53.16 148.22 51.54 L 148.22 51.54 L 148.22 51.54 Q 149.96 49.92 152 48.51 L 152 48.51 L 152 48.51 Q 154.04 47.1 156.08 46.14 L 156.08 46.14 L 156.08 46.14 Q 158.12 45.18 159.86 45.18 L 159.86 45.18 L 159.86 45.18 Q 160.76 45.18 161.48 45.69 L 161.48 45.69 L 161.48 45.69 Q 162.2 46.2 162.32 47.1 L 162.32 47.1 L 162.32 47.1 Q 162.44 47.94 162.11 48.75 L 162.11 48.75 L 162.11 48.75 Q 161.78 49.56 161.21 50.37 L 161.21 50.37 L 161.21 50.37 Q 160.64 51.18 159.95 51.87 L 159.95 51.87 L 159.95 51.87 Q 159.26 52.56 158.6 53.1 L 158.6 53.1 L 158.6 53.1 Q 157.16 54.3 155.99 54.99 L 155.99 54.99 L 155.99 54.99 Q 154.82 55.68 154.34 55.92 L 154.34 55.92 L 154.34 55.92 Q 154.04 56.1 153.8 56.16 L 153.8 56.16 L 153.8 56.16 Q 153.62 56.28 153.47 56.28 L 153.47 56.28 L 153.47 56.28 Q 153.32 56.28 153.38 56.16 L 153.38 56.16 L 153.38 56.16 Q 153.5 55.86 153.8 55.68 L 153.8 55.68 L 153.8 55.68 Q 154.1 55.5 154.34 55.32 L 154.34 55.32 L 154.34 55.32 Q 155.18 54.72 156.08 53.88 L 156.08 53.88 L 156.08 53.88 Q 156.98 53.04 157.79 52.08 L 157.79 52.08 L 157.79 52.08 Q 158.6 51.12 159.17 50.04 L 159.17 50.04 L 159.17 50.04 Q 159.74 48.96 159.92 47.82 L 159.92 47.82 L 159.92 47.82 Q 158.72 48.12 157.67 48.87 L 157.67 48.87 L 157.67 48.87 Q 156.62 49.62 155.6 50.46 L 155.6 50.46 L 155.6 50.46 Q 154.22 51.66 152.48 53.22 L 152.48 53.22 L 152.48 53.22 Q 150.74 54.78 149.12 56.58 L 149.12 56.58 L 149.12 56.58 Q 147.5 58.38 146.21 60.3 L 146.21 60.3 L 146.21 60.3 Q 144.92 62.22 144.5 64.14 L 144.5 64.14 L 144.5 64.14 Q 146.48 63.96 148.4 63.21 L 148.4 63.21 L 148.4 63.21 Q 150.32 62.46 152.12 61.47 L 152.12 61.47 L 152.12 61.47 Q 153.92 60.48 155.66 59.31 L 155.66 59.31 L 155.66 59.31 Q 157.4 58.14 159.08 57.06 L 159.08 57.06 L 159.08 57.06 Q 160.16 56.22 161 55.68 L 161 55.68 L 161 55.68 Q 161.84 55.14 162.74 54.42 Z  M 195.14 13.56 L 195.14 13.56 L 195.14 13.56 Q 195.2 13.62 195.2 13.86 L 195.2 13.86 L 195.2 13.86 Q 195.08 14.52 194.66 15.24 L 194.66 15.24 L 194.66 15.24 Q 194.24 15.96 193.88 16.62 L 193.88 16.62 L 193.88 16.62 Q 192.44 19.08 190.94 21.45 L 190.94 21.45 L 190.94 21.45 Q 189.44 23.82 187.88 26.22 L 187.88 26.22 L 187.88 26.22 Q 185.6 29.64 183.32 32.91 L 183.32 32.91 L 183.32 32.91 Q 181.04 36.18 178.7 39.48 L 178.7 39.48 L 178.7 39.48 Q 175.82 43.56 172.52 48 L 172.52 48 L 172.52 48 Q 169.22 52.44 166.22 56.46 L 166.22 56.46 L 166.22 56.46 Q 167.42 55.44 169.1 54.18 L 169.1 54.18 L 169.1 54.18 Q 170.78 52.92 172.58 51.63 L 172.58 51.63 L 172.58 51.63 Q 174.38 50.34 176.09 49.14 L 176.09 49.14 L 176.09 49.14 Q 177.8 47.94 179.06 46.98 L 179.06 46.98 L 179.06 46.98 Q 179.84 46.38 180.86 45.78 L 180.86 45.78 L 180.86 45.78 Q 181.88 45.18 182.96 45.54 L 182.96 45.54 L 182.96 45.54 Q 183.68 45.78 184.01 46.47 L 184.01 46.47 L 184.01 46.47 Q 184.34 47.16 184.04 47.82 L 184.04 47.82 L 184.04 47.82 Q 183.74 48.48 183.11 49.14 L 183.11 49.14 L 183.11 49.14 Q 182.48 49.8 182 50.4 L 182 50.4 L 182 50.4 Q 180.74 51.9 179.27 53.52 L 179.27 53.52 L 179.27 53.52 Q 177.8 55.14 176.6 56.7 L 176.6 56.7 L 176.6 56.7 Q 175.46 58.2 174.47 59.82 L 174.47 59.82 L 174.47 59.82 Q 173.48 61.44 172.82 63.18 L 172.82 63.18 L 172.82 63.18 Q 175.28 61.2 177.56 59.43 L 177.56 59.43 L 177.56 59.43 Q 179.84 57.66 182.54 55.92 L 182.54 55.92 L 182.54 55.92 Q 183.08 55.56 183.65 55.23 L 183.65 55.23 L 183.65 55.23 Q 184.22 54.9 184.88 54.66 L 184.88 54.66 L 184.88 54.66 Q 185.3 54.54 185.12 54.75 L 185.12 54.75 L 185.12 54.75 Q 184.94 54.96 184.82 55.08 L 184.82 55.08 L 184.82 55.08 Q 184.52 55.38 184.19 55.65 L 184.19 55.65 L 184.19 55.65 Q 183.86 55.92 183.56 56.22 L 183.56 56.22 L 183.56 56.22 Q 181.28 58.02 179.27 59.94 L 179.27 59.94 L 179.27 59.94 Q 177.26 61.86 175.04 63.78 L 175.04 63.78 L 175.04 63.78 Q 174.38 64.44 173.69 65.07 L 173.69 65.07 L 173.69 65.07 Q 173 65.7 172.28 66.24 L 172.28 66.24 L 172.28 66.24 Q 171.62 66.72 170.84 66.75 L 170.84 66.75 L 170.84 66.75 Q 170.06 66.78 169.58 66 L 169.58 66 L 169.58 66 Q 169.16 65.28 169.25 64.29 L 169.25 64.29 L 169.25 64.29 Q 169.34 63.3 169.52 62.58 L 169.52 62.58 L 169.52 62.58 Q 169.82 61.08 170.78 59.37 L 170.78 59.37 L 170.78 59.37 Q 171.74 57.66 172.91 55.98 L 172.91 55.98 L 172.91 55.98 Q 174.08 54.3 175.34 52.71 L 175.34 52.71 L 175.34 52.71 Q 176.6 51.12 177.5 49.74 L 177.5 49.74 L 177.5 49.74 Q 175.58 51.12 173.39 52.65 L 173.39 52.65 L 173.39 52.65 Q 171.2 54.18 168.83 56.13 L 168.83 56.13 L 168.83 56.13 Q 166.46 58.08 164 60.51 L 164 60.51 L 164 60.51 Q 161.54 62.94 159.02 66.06 L 159.02 66.06 L 159.02 66.06 Q 158.72 66.48 158.33 66.9 L 158.33 66.9 L 158.33 66.9 Q 157.94 67.32 157.4 67.38 L 157.4 67.38 L 157.4 67.38 Q 156.68 67.44 156.23 66.87 L 156.23 66.87 L 156.23 66.87 Q 155.78 66.3 155.96 65.64 L 155.96 65.64 L 155.96 65.64 Q 156.08 65.16 156.38 64.71 L 156.38 64.71 L 156.38 64.71 Q 156.68 64.26 156.98 63.84 L 156.98 63.84 L 156.98 63.84 Q 159.08 60.48 161.66 56.64 L 161.66 56.64 L 161.66 56.64 Q 164.24 52.8 166.52 49.56 L 166.52 49.56 L 166.52 49.56 Q 168.8 46.2 171.17 42.96 L 171.17 42.96 L 171.17 42.96 Q 173.54 39.72 175.94 36.48 L 175.94 36.48 L 175.94 36.48 Q 178.4 33.24 180.83 30.06 L 180.83 30.06 L 180.83 30.06 Q 183.26 26.88 185.78 23.76 L 185.78 23.76 L 185.78 23.76 Q 187.52 21.54 189.35 19.35 L 189.35 19.35 L 189.35 19.35 Q 191.18 17.16 193.16 15.18 L 193.16 15.18 L 193.16 15.18 Q 193.28 15.06 193.55 14.76 L 193.55 14.76 L 193.55 14.76 Q 193.82 14.46 194.12 14.16 L 194.12 14.16 L 194.12 14.16 Q 194.42 13.86 194.72 13.68 L 194.72 13.68 L 194.72 13.68 Q 195.02 13.5 195.14 13.56 Z " fill="rgb(247,178,2)"/></g></svg>